<?xml version="1.0" encoding="UTF-8" standalone="no"?>
<svg
   xmlns:dc="http://purl.org/dc/elements/1.1/"
   xmlns:cc="http://creativecommons.org/ns#"
   xmlns:rdf="http://www.w3.org/1999/02/22-rdf-syntax-ns#"
   xmlns:svg="http://www.w3.org/2000/svg"
   xmlns="http://www.w3.org/2000/svg"
   xmlns:sodipodi="http://sodipodi.sourceforge.net/DTD/sodipodi-0.dtd"
   xmlns:inkscape="http://www.inkscape.org/namespaces/inkscape"
   sodipodi:docname="yt.svg"
   inkscape:version="1.0 (1.0+r73+1)"
   id="svg8"
   version="1.1"
   viewBox="0 0 13.67565 13.642351"
   height="13.64235mm"
   width="13.67565mm">
  <defs
     id="defs2">
    <clipPath
       id="clipPath18"
       clipPathUnits="userSpaceOnUse">
      <path
         inkscape:connector-curvature="0"
         id="path16"
         d="M 0,192 H 192 V 0 H 0 Z" />
    </clipPath>
  </defs>
  <sodipodi:namedview
     inkscape:document-rotation="0"
     inkscape:window-maximized="1"
     inkscape:window-y="0"
     inkscape:window-x="0"
     inkscape:window-height="775"
     inkscape:window-width="1280"
     inkscape:showpageshadow="false"
     borderlayer="true"
     units="mm"
     showgrid="false"
     inkscape:current-layer="layer1"
     inkscape:document-units="in"
     inkscape:cy="26.906201"
     inkscape:cx="18.116365"
     inkscape:zoom="5.6568542"
     inkscape:pageshadow="2"
     inkscape:pageopacity="0.0"
     borderopacity="1.0"
     bordercolor="#666666"
     pagecolor="#ffffff"
     id="base" />
  <metadata
     id="metadata5">
    <rdf:RDF>
      <cc:Work
         rdf:about="">
        <dc:format>image/svg+xml</dc:format>
        <dc:type
           rdf:resource="http://purl.org/dc/dcmitype/StillImage" />
        <dc:title></dc:title>
        <dc:creator>
          <cc:Agent>
            <dc:title />
          </cc:Agent>
        </dc:creator>
      </cc:Work>
    </rdf:RDF>
  </metadata>
  <g
     transform="translate(-218.56427,-220.91448)"
     id="layer1"
     inkscape:groupmode="layer"
     inkscape:label="Layer 1">
    <g
       style="fill:#ffffff;stroke-width:4.55752945"
       id="g12"
       transform="matrix(0.07740549,0,0,-0.07740549,217.97117,235.16659)">
      <g
         style="fill:#ffffff;stroke-width:4.55752945"
         clip-path="url(#clipPath18)"
         id="g14">
        <g
           style="fill:#ffffff;stroke-width:4.55752945"
           transform="translate(78,69.8311)"
           id="g20">
          <path
             inkscape:connector-curvature="0"
             id="path22-3"
             style="fill:#ffffff;fill-opacity:1;fill-rule:nonzero;stroke:none;stroke-width:4.55752945"
             d="M 0,0 V 52.338 L 46,26.168 Z M 102.322,68.806 C 100.298,76.428 94.334,82.43 86.762,84.467 73.037,88.169 18,88.169 18,88.169 c 0,0 -55.037,0 -68.762,-3.702 C -58.334,82.43 -64.298,76.428 -66.322,68.806 -70,54.992 -70,26.169 -70,26.169 c 0,0 0,-28.822 3.678,-42.637 2.024,-7.622 7.988,-13.624 15.56,-15.662 13.725,-3.701 68.762,-3.701 68.762,-3.701 0,0 55.037,0 68.762,3.701 7.572,2.038 13.536,8.04 15.56,15.662 C 106,-2.653 106,26.169 106,26.169 c 0,0 0,28.823 -3.678,42.637" />
        </g>
      </g>
    </g>
  </g>
</svg>
