<?xml version="1.0" encoding="UTF-8" standalone="no"?>
<svg
   xmlns:dc="http://purl.org/dc/elements/1.1/"
   xmlns:cc="http://creativecommons.org/ns#"
   xmlns:rdf="http://www.w3.org/1999/02/22-rdf-syntax-ns#"
   xmlns:svg="http://www.w3.org/2000/svg"
   xmlns="http://www.w3.org/2000/svg"
   xmlns:sodipodi="http://sodipodi.sourceforge.net/DTD/sodipodi-0.dtd"
   xmlns:inkscape="http://www.inkscape.org/namespaces/inkscape"
   width="100"
   height="100"
   viewBox="0 0 100 100"
   fill="none"
   version="1.1"
   id="svg4"
   sodipodi:docname="dribbble-ball-mark_b.svg"
   inkscape:version="1.0.2 (1.0.2+r75+1)">
  <metadata
     id="metadata10">
    <rdf:RDF>
      <cc:Work
         rdf:about="">
        <dc:format>image/svg+xml</dc:format>
        <dc:type
           rdf:resource="http://purl.org/dc/dcmitype/StillImage" />
        <dc:title></dc:title>
      </cc:Work>
    </rdf:RDF>
  </metadata>
  <defs
     id="defs8" />
  <sodipodi:namedview
     pagecolor="#ffffff"
     bordercolor="#666666"
     borderopacity="1"
     objecttolerance="10"
     gridtolerance="10"
     guidetolerance="10"
     inkscape:pageopacity="0"
     inkscape:pageshadow="2"
     inkscape:window-width="1107"
     inkscape:window-height="707"
     id="namedview6"
     showgrid="false"
     inkscape:zoom="2.8601922"
     inkscape:cx="34.847334"
     inkscape:cy="34.575807"
     inkscape:window-x="0"
     inkscape:window-y="0"
     inkscape:window-maximized="0"
     inkscape:current-layer="svg4" />
  <path
     fill-rule="evenodd"
     clip-rule="evenodd"
     d="M 50,0 C 22.397,0 0,22.397 0,50 0,77.603 22.397,100 50,100 77.5488,100 100,77.603 100,50 100,22.397 77.5488,0 50,0 Z m 33.026,23.0477 c 5.9653,7.2668 9.5445,16.5402 9.653,26.5727 C 91.269,49.3492 77.1692,46.4751 62.961,48.2646 62.6356,47.5597 62.3644,46.8004 62.0391,46.0412 61.1714,43.9805 60.1952,41.8655 59.2191,39.859 74.9458,33.4599 82.1041,24.2408 83.026,23.0477 Z M 50,7.37527 c 10.846,0 20.7701,4.06723 28.308,10.73753 C 77.5488,19.1974 71.0954,27.82 55.9111,33.5141 48.9154,20.6616 41.1605,10.141 39.9675,8.5141 43.167,7.75488 46.5293,7.37527 50,7.37527 Z M 31.833,11.3883 c 1.1388,1.5184 8.731,12.0933 15.8351,24.6746 C 27.7115,41.3774 10.0868,41.269 8.18872,41.269 10.9544,28.0369 19.9024,17.0282 31.833,11.3883 Z M 7.26681,50.0542 c 0,-0.4338 0,-0.8676 0,-1.3015 1.84382,0.0542 22.55969,0.3254 43.87199,-6.0737 1.2473,2.3861 2.3861,4.8264 3.4707,7.2668 -0.5423,0.1627 -1.1388,0.3254 -1.6811,0.488 C 30.9111,57.538 19.1974,76.9523 18.2213,78.5792 11.4425,71.0412 7.26681,61.0087 7.26681,50.0542 Z M 50,92.7332 c -9.8698,0 -18.9805,-3.3623 -26.1931,-9.0022 0.7593,-1.5726 9.4361,-18.2755 33.5141,-26.6811 0.1085,-0.0542 0.1627,-0.0542 0.2712,-0.1085 6.0195,15.564 8.4599,28.6334 9.1106,32.3753 C 61.551,91.5401 55.9111,92.7332 50,92.7332 Z m 23.807,-7.321 c -0.4339,-2.6031 -2.7115,-15.076 -8.2972,-30.423 13.3948,-2.115 25.1084,1.3557 26.5726,1.8438 -1.8438,11.8763 -8.6768,22.1258 -18.2754,28.5792 z"
     fill="#444444"
     id="path2"
     style="stroke-width:1;fill:#262626;fill-opacity:1" />
</svg>
