<?xml version="1.0" encoding="UTF-8" standalone="no"?>
<svg
   xmlns:dc="http://purl.org/dc/elements/1.1/"
   xmlns:cc="http://creativecommons.org/ns#"
   xmlns:rdf="http://www.w3.org/1999/02/22-rdf-syntax-ns#"
   xmlns:svg="http://www.w3.org/2000/svg"
   xmlns="http://www.w3.org/2000/svg"
   xmlns:sodipodi="http://sodipodi.sourceforge.net/DTD/sodipodi-0.dtd"
   xmlns:inkscape="http://www.inkscape.org/namespaces/inkscape"
   sodipodi:docname="insta.svg"
   inkscape:version="1.0 (1.0+r73+1)"
   id="svg8"
   version="1.1"
   viewBox="0 0 13.67565 13.642351"
   height="13.64235mm"
   width="13.67565mm">
  <defs
     id="defs2" />
  <sodipodi:namedview
     inkscape:document-rotation="0"
     inkscape:window-maximized="1"
     inkscape:window-y="0"
     inkscape:window-x="0"
     inkscape:window-height="775"
     inkscape:window-width="1280"
     inkscape:showpageshadow="false"
     borderlayer="true"
     units="mm"
     showgrid="false"
     inkscape:current-layer="layer1"
     inkscape:document-units="in"
     inkscape:cy="24.53457"
     inkscape:cx="20.342778"
     inkscape:zoom="8"
     inkscape:pageshadow="2"
     inkscape:pageopacity="0.0"
     borderopacity="1.0"
     bordercolor="#666666"
     pagecolor="#ffffff"
     id="base" />
  <metadata
     id="metadata5">
    <rdf:RDF>
      <cc:Work
         rdf:about="">
        <dc:format>image/svg+xml</dc:format>
        <dc:type
           rdf:resource="http://purl.org/dc/dcmitype/StillImage" />
        <dc:title></dc:title>
        <dc:creator>
          <cc:Agent>
            <dc:title />
          </cc:Agent>
        </dc:creator>
      </cc:Work>
    </rdf:RDF>
  </metadata>
  <g
     transform="translate(-156.19983,-220.91443)"
     id="layer1"
     inkscape:groupmode="layer"
     inkscape:label="Layer 1">
    <path
       inkscape:connector-curvature="0"
       id="rect3687"
       d="m 160.15811,220.91443 c -2.18302,0 -3.95828,1.77624 -3.95828,3.95926 v 5.72481 c 0,2.18302 1.77526,3.95828 3.95828,3.95828 h 5.7591 c 2.18302,0 3.95827,-1.77526 3.95827,-3.95828 v -5.72481 c 0,-2.18302 -1.77525,-3.95926 -3.95827,-3.95926 z m 0,1.1728 h 5.7591 c 1.55368,0 2.78647,1.23279 2.78647,2.78646 v 5.72481 c 0,1.55368 -1.23279,2.78549 -2.78647,2.78549 h -5.7591 c -1.55369,0 -2.78549,-1.23181 -2.78549,-2.78549 v -5.72481 c 0,-1.55367 1.2318,-2.78646 2.78549,-2.78646 z m 6.54977,1.17278 c -0.45303,0 -0.82007,0.36704 -0.82007,0.82006 0,0.45304 0.36704,0.82008 0.82007,0.82008 0.45303,0 0.82007,-0.36704 0.82007,-0.82008 0,-0.45302 -0.36704,-0.82006 -0.82007,-0.82006 z m -3.67022,0.96311 c -1.93307,0 -3.51248,1.57942 -3.51248,3.51249 0,1.93306 1.57941,3.51248 3.51248,3.51248 1.93306,0 3.51346,-1.57942 3.51346,-3.51248 0,-1.93307 -1.5804,-3.51249 -3.51346,-3.51249 z m 0,1.17279 c 1.29935,0 2.34067,1.04035 2.34067,2.3397 0,1.29935 -1.04132,2.33969 -2.34067,2.33969 -1.29935,0 -2.3397,-1.04034 -2.3397,-2.33969 0,-1.29935 1.04035,-2.3397 2.3397,-2.3397 z"
       style="color:#000000;font-style:normal;font-variant:normal;font-weight:normal;font-stretch:normal;font-size:medium;line-height:normal;font-family:Sans;-inkscape-font-specification:Sans;text-indent:0;text-align:start;text-decoration:none;text-decoration-line:none;letter-spacing:normal;word-spacing:normal;text-transform:none;writing-mode:lr-tb;direction:ltr;baseline-shift:baseline;text-anchor:start;display:inline;overflow:visible;visibility:visible;fill:#ffffff;fill-opacity:1;stroke:none;stroke-width:9.89541721;marker:none;enable-background:accumulate" />
  </g>
</svg>
